# xmcd
#
# Track frame offsets: 
#        182
#        14200
#        30227
#        46130
#        60557
#        77375
#        93215
#        104382
#        121840
#        135095
#        149717
#        164712
#
# Disc length: 2412 seconds
#
# Revision: 1
# Processed by: cddbd v1.5.2PL0 Copyright (c) Steve Scherf et al.
# Submitted via: ExactAudioCopy v1.0b3
#
DISCID=94096a0c
DTITLE=Wildecker Herzbuben - Zwei Kerle wie wir
DYEAR=1991
DGENRE=Volksmusik
TTITLE0=Zwei Kerle wir wir
TTITLE1=Und heut' verwöhn ich Dich
TTITLE2=In meiner kleinen Kneipe
TTITLE3=Mein kleines Teufelchen
TTITLE4=Das kleine Herzerl dort in der Linde
TTITLE5=Schützenkönig möcht' ich einmal sein
TTITLE6=Einmal am Tag mußt Du feiern
TTITLE7=Guter Mond, mach Dein Licht noch nicht aus
TTITLE8=Wir sind rund, na und
TTITLE9=Am Berg, wo die Tannen stehen
TTITLE10=Hurra, die Feuerwehr ist da
TTITLE11=Ach, ist das schön
EXTD=CD von I.B.\n
EXTT0=
EXTT1=
EXTT2=
EXTT3=
EXTT4=
EXTT5=
EXTT6=
EXTT7=
EXTT8=
EXTT9=
EXTT10=
EXTT11=
PLAYORDER=
